<svg width="167" height="26" viewBox="0 0 167 26" fill="none" xmlns="http://www.w3.org/2000/svg">
<path d="M9.97062 13.642L20.6255 26H14.1495L5.03419 15.4215L4.88756 26H0V1.33337H4.86312V7.78428L6.94033 10.1817L14.3939 1.33337H20.6255L9.97062 13.642Z" fill="white"/>
<path d="M43.196 25.9753L30.1348 21.0568L28.0201 25.9753H22.6215L33.1949 1.33337H37.9715L48.5697 26H43.196V25.9753ZM32.2495 16.1136L40.3598 19.2773L35.5832 8.30331L32.2246 16.1136H32.2495Z" fill="white"/>
<path d="M67.8645 21.1756V26H50.5657V1.33337H55.3173V21.2003H67.8398L67.8645 21.1756Z" fill="white"/>
<path d="M69.8605 25.9753V1.33337H74.7446L82.1693 14.1857L89.6187 1.33337H94.4781V26H89.5694V11.294L85.0307 19.129L89.0267 26H83.3533L82.194 24.0228L81.0346 26H75.3612L79.3573 19.129L74.8186 11.294V26H69.8605V25.9753Z" fill="white"/>
<path d="M117.029 25.9753L103.98 21.0568L101.868 25.9753H96.4741L107.062 1.33337H111.834L122.422 26H117.054L117.029 25.9753ZM106.093 16.1136L114.195 19.2773L109.423 8.30331L106.068 16.1136H106.093Z" fill="white"/>
<path d="M145.684 26H139.437L133.789 18.6025H129.391V26H124.418V13.6791H130.016L124.418 6.35577V1.33337H136.388C141.211 1.33337 145.109 5.21769 145.109 9.96795C145.109 13.4812 142.885 16.7964 139.587 18.0087L145.709 26H145.684ZM136.363 13.6791C138.412 13.6791 140.087 11.972 140.087 9.96795C140.087 7.96393 138.412 6.25681 136.363 6.25681H130.566L136.213 13.6791H136.338H136.363Z" fill="white"/>
<path d="M147.065 18.5891V18.1182H152.036V18.5891C152.036 20.0267 154.784 21.0677 157.007 21.0677C158.581 21.0677 160.38 20.6711 161.529 19.531L147.04 8.65014V7.41087C147.04 2.92469 151.786 0 157.007 0C162.229 0 166.975 2.87512 166.975 7.41087V7.88179H162.004V7.41087C162.004 5.97331 159.256 4.93232 157.032 4.93232C155.484 4.93232 153.635 5.35367 152.511 6.46902L167 17.3499V18.5891C167 23.0505 162.254 26 157.032 26C151.811 26 147.065 23.1497 147.065 18.5891Z" fill="white"/>
</svg>
