<svg width="160" height="100" viewBox="0 0 160 100" fill="none" xmlns="http://www.w3.org/2000/svg">
<g clip-path="url(#clip0_14997_15521)">
<path d="M69.0183 24H17V76H69.0183V24Z" fill="#FFD409"/>
<path fill-rule="evenodd" clip-rule="evenodd" d="M26.8281 41.9111H30.0945C30.4318 41.9111 30.7136 41.9878 30.9398 42.1411C31.166 42.2944 31.3136 42.4975 31.3826 42.7504L33.6828 51.4882C33.7518 51.7718 33.8208 52.0746 33.8898 52.3965C33.9589 52.7184 34.0279 53.0557 34.0969 53.4083C34.2349 52.6878 34.4036 52.0478 34.6029 51.4882L37.3172 42.7504C37.3862 42.5358 37.5338 42.3423 37.76 42.1698C37.9862 41.9974 38.2603 41.9111 38.5823 41.9111H39.7324C40.0698 41.9111 40.342 41.9897 40.549 42.1468C40.7561 42.304 40.9132 42.5051 41.0206 42.7504L43.7119 51.4882C43.9112 52.0248 44.0799 52.6341 44.2179 53.3163C44.2792 52.979 44.3425 52.6571 44.4077 52.3505C44.4729 52.0439 44.5399 51.7565 44.6089 51.4882L46.9092 42.7504C46.9705 42.5281 47.1162 42.3327 47.3462 42.1641C47.5763 41.9954 47.8523 41.9111 48.1743 41.9111H51.2336L46.0581 58.6624H42.5387L39.3874 48.2805C39.2724 47.951 39.1612 47.5715 39.0539 47.1423C38.9465 47.5715 38.8354 47.951 38.7203 48.2805L35.523 58.6624H32.0037L26.8281 41.9111ZM56.6876 41.9261H59.5101L54.6953 57.4468C54.4702 58.1722 53.7989 58.6667 53.0391 58.6667H50.2997L55.029 43.1542C55.2514 42.4246 55.9247 41.9261 56.6876 41.9261Z" fill="#222222"/>
<path fill-rule="evenodd" clip-rule="evenodd" d="M79.2904 48.2667V42.6554H78.0234V41.4258H81.8242V42.6554H80.5573V48.2667H79.2904ZM85.5973 41.3057C86.6146 41.3057 87.47 41.6539 88.1635 42.3503C88.8571 43.0467 89.2039 43.891 89.2039 44.8833C89.2039 45.8755 88.8556 46.7152 88.1589 47.4024C87.4623 48.0895 86.6084 48.4331 85.5973 48.4331C84.5801 48.4331 83.7231 48.0895 83.0264 47.4024C82.3298 46.7152 81.9845 45.8755 81.9907 44.8833C81.9907 43.891 82.3359 43.0467 83.0264 42.3503C83.7169 41.6539 84.5739 41.3057 85.5973 41.3057ZM85.5881 47.2036C86.2539 47.2036 86.8118 46.9741 87.2619 46.5149C87.712 46.0558 87.937 45.5026 87.937 44.8555C87.937 44.2146 87.712 43.6676 87.2619 43.2146C86.8118 42.7617 86.257 42.5352 85.5973 42.5352C84.9315 42.5352 84.3751 42.7617 83.9281 43.2146C83.4811 43.6676 83.2576 44.2146 83.2576 44.8555C83.2576 45.5088 83.4811 46.0635 83.9281 46.5195C84.3751 46.9756 84.9284 47.2036 85.5881 47.2036ZM90.2119 48.2667V41.4258H92.1262C92.9092 41.432 93.5133 41.6246 93.9387 42.0036C94.3641 42.3826 94.5768 42.9019 94.5768 43.5613C94.5768 44.1838 94.3703 44.6922 93.9572 45.0866C93.5442 45.4811 92.9338 45.6783 92.1262 45.6783H91.4788V48.2667H90.2119ZM91.4788 42.6554V44.4488H92.2279C92.5732 44.4488 92.8383 44.3748 93.0232 44.2269C93.2082 44.079 93.3037 43.8541 93.3099 43.5521C93.3099 43.2562 93.2159 43.0328 93.0278 42.8818C92.8398 42.7308 92.5732 42.6554 92.2279 42.6554H91.4788ZM97.2679 46.3439H98.5903C98.5965 46.6089 98.6874 46.8184 98.8631 46.9725C99.0389 47.1266 99.2531 47.2036 99.5059 47.2036C99.7771 47.2036 99.9991 47.1235 100.172 46.9633C100.344 46.803 100.431 46.5966 100.431 46.3439C100.431 46.0974 100.35 45.8832 100.19 45.7014C100.03 45.5196 99.7771 45.3701 99.4319 45.253C99.0805 45.1421 98.8893 45.0805 98.8585 45.0682C98.8277 45.0558 98.7969 45.0404 98.766 45.0219C98.3406 44.8494 98.0262 44.6059 97.8228 44.2916C97.6193 43.9773 97.5176 43.6291 97.5176 43.247C97.5176 42.6923 97.7133 42.2301 98.1048 41.8603C98.4963 41.4906 98.9787 41.3057 99.5521 41.3057C100.101 41.3057 100.56 41.4844 100.93 41.8418C101.3 42.1993 101.5 42.6677 101.531 43.247H100.227C100.221 43.0375 100.153 42.8664 100.024 42.7339C99.8943 42.6014 99.7247 42.5352 99.5151 42.5352C99.2993 42.5413 99.1221 42.6076 98.9834 42.7339C98.8446 42.8603 98.7784 43.0344 98.7845 43.2562C98.7845 43.4535 98.8477 43.6168 98.9741 43.7462C99.1005 43.8756 99.3302 43.9896 99.6631 44.0882C99.8604 44.156 99.9991 44.2038 100.079 44.2315C100.159 44.2593 100.236 44.2855 100.31 44.3101C100.73 44.4827 101.066 44.7323 101.318 45.0589C101.571 45.3855 101.698 45.7892 101.698 46.2699C101.698 46.8862 101.488 47.4008 101.069 47.8138C100.649 48.2267 100.119 48.4331 99.4781 48.4331C98.8431 48.4331 98.316 48.2328 97.8968 47.8322C97.4775 47.4316 97.2679 46.9355 97.2679 46.3439ZM105.952 41.3057C106.969 41.3057 107.824 41.6539 108.518 42.3503C109.211 43.0467 109.558 43.891 109.558 44.8833C109.558 45.8755 109.21 46.7152 108.513 47.4024C107.816 48.0895 106.963 48.4331 105.952 48.4331C104.934 48.4331 104.077 48.0895 103.381 47.4024C102.684 46.7152 102.339 45.8755 102.345 44.8833C102.345 43.891 102.69 43.0467 103.381 42.3503C104.071 41.6539 104.928 41.3057 105.952 41.3057ZM105.942 47.2036C106.608 47.2036 107.166 46.9741 107.616 46.5149C108.066 46.0558 108.291 45.5026 108.291 44.8555C108.291 44.2146 108.066 43.6676 107.616 43.2146C107.166 42.7617 106.611 42.5352 105.952 42.5352C105.286 42.5352 104.729 42.7617 104.282 43.2146C103.835 43.6676 103.612 44.2146 103.612 44.8555C103.612 45.5088 103.835 46.0635 104.282 46.5195C104.729 46.9756 105.283 47.2036 105.942 47.2036ZM110.566 48.2667V41.4258H114.043V42.6554H111.833V44.2362H113.942V45.4657H111.833V48.2667H110.566ZM115.8 48.2667V42.6554H114.533V41.4258H118.334V42.6554H117.067V48.2667H115.8ZM120.517 48.2667L118.528 41.4258H119.823L121.016 46.2145L122.181 41.4258H123.106L124.271 46.2145L125.464 41.4258H126.759L124.771 48.2667H123.763L122.644 43.7462L121.525 48.2667H120.517ZM126.139 48.2667L128.988 41.4258H130.005L132.853 48.2667H131.457L130.754 46.501H128.238L127.536 48.2667H126.139ZM128.719 45.2715H130.273L129.496 43.2747L128.719 45.2715ZM133.658 48.2667V41.4258H135.637C136.463 41.4258 137.098 41.62 137.542 42.0082C137.986 42.3965 138.208 42.9265 138.208 43.5983C138.208 44.1591 138.036 44.6444 137.694 45.0543C137.352 45.4641 136.907 45.6937 136.358 45.743L138.281 48.2667H136.719L134.943 45.743H134.925V48.2667H133.658ZM134.925 42.6554V44.6891H135.674C136.062 44.6891 136.37 44.6075 136.598 44.4442C136.827 44.2808 136.941 44.0235 136.941 43.6722C136.934 43.3271 136.819 43.0714 136.594 42.905C136.369 42.7386 136.062 42.6554 135.674 42.6554H134.925ZM139.132 48.2667V41.4258H142.804V42.6554H140.399V44.2362H142.702V45.4657H140.399V47.0372H142.804V48.2667H139.132Z" fill="#222222"/>
<path fill-rule="evenodd" clip-rule="evenodd" d="M77.7891 59.2445V52.4036H79.6848C80.8254 52.4036 81.7224 52.6948 82.3759 53.2772C83.0294 53.8596 83.3562 54.7209 83.3562 55.861C83.3562 56.8656 83.0541 57.6807 82.4499 58.3062C81.8457 58.9317 80.9333 59.2445 79.7126 59.2445H77.7891ZM79.056 58.015H79.6756C80.4524 58.0212 81.0473 57.8486 81.4604 57.4973C81.8735 57.146 82.0831 56.6006 82.0892 55.861C82.0892 55.0968 81.875 54.5345 81.4465 54.1739C81.0181 53.8134 80.4062 53.6331 79.6109 53.6331H79.056V58.015ZM84.3734 59.2445V52.4036H88.0448V53.6331H85.6404V55.2139H87.943V56.4434H85.6404V58.015H88.0448V59.2445H84.3734ZM91.3739 59.2445L88.7291 52.4036H90.0608L91.9011 57.6082L93.7414 52.4036H95.073L92.4282 59.2445H91.3739ZM95.8776 59.2445V52.4036H99.5489V53.6331H97.1445V55.2139H99.4472V56.4434H97.1445V58.015H99.5489V59.2445H95.8776ZM100.797 59.2445V52.4036H102.064V58.015H104.154V59.2445H100.797ZM107.964 52.2834C108.982 52.2834 109.837 52.6317 110.531 53.3281C111.224 54.0245 111.571 54.8688 111.571 55.861C111.571 56.8533 111.223 57.693 110.526 58.3802C109.829 59.0673 108.975 59.4109 107.964 59.4109C106.947 59.4109 106.09 59.0673 105.393 58.3802C104.697 57.693 104.352 56.8533 104.358 55.861C104.358 54.8688 104.703 54.0245 105.393 53.3281C106.084 52.6317 106.941 52.2834 107.964 52.2834ZM107.955 58.1814C108.621 58.1814 109.179 57.9518 109.629 57.4927C110.079 57.0335 110.304 56.4804 110.304 55.8333C110.304 55.1924 110.079 54.6454 109.629 54.1924C109.179 53.7394 108.624 53.513 107.964 53.513C107.298 53.513 106.742 53.7394 106.295 54.1924C105.848 54.6454 105.625 55.1924 105.625 55.8333C105.625 56.4866 105.848 57.0413 106.295 57.4973C106.742 57.9534 107.295 58.1814 107.955 58.1814ZM112.579 59.2445V52.4036H114.493C115.276 52.4098 115.88 52.6024 116.306 52.9814C116.731 53.3604 116.944 53.8797 116.944 54.5391C116.944 55.1616 116.737 55.67 116.324 56.0644C115.911 56.4589 115.301 56.6561 114.493 56.6561H113.846V59.2445H112.579ZM113.846 53.6331V55.4266H114.595C114.94 55.4266 115.205 55.3526 115.39 55.2047C115.575 55.0568 115.671 54.8318 115.677 54.5298C115.677 54.234 115.583 54.0106 115.395 53.8596C115.207 53.7086 114.94 53.6331 114.595 53.6331H113.846ZM117.869 59.2445V52.4036H121.54V53.6331H119.136V55.2139H121.438V56.4434H119.136V58.015H121.54V59.2445H117.869ZM122.788 59.2445V52.4036H124.767C125.594 52.4036 126.229 52.5978 126.672 52.986C127.116 53.3743 127.338 53.9043 127.338 54.5761C127.338 55.1369 127.167 55.6222 126.825 56.0321C126.483 56.4419 126.037 56.6715 125.489 56.7208L127.412 59.2445H125.849L124.074 56.7208H124.055V59.2445H122.788ZM124.055 53.6331V55.6669H124.804C125.193 55.6669 125.501 55.5853 125.729 55.4219C125.957 55.2586 126.071 55.0013 126.071 54.65C126.065 54.3049 125.95 54.0491 125.725 53.8827C125.5 53.7163 125.193 53.6331 124.804 53.6331H124.055ZM127.764 57.3217H129.086C129.092 57.5867 129.183 57.7962 129.359 57.9503C129.535 58.1044 129.749 58.1814 130.002 58.1814C130.273 58.1814 130.495 58.1013 130.667 57.941C130.84 57.7808 130.926 57.5744 130.926 57.3217C130.926 57.0752 130.846 56.861 130.686 56.6792C130.526 56.4974 130.273 56.3479 129.928 56.2308C129.576 56.1199 129.385 56.0583 129.354 56.0459C129.323 56.0336 129.293 56.0182 129.262 55.9997C128.836 55.8271 128.522 55.5837 128.319 55.2694C128.115 54.9551 128.013 54.6069 128.013 54.2248C128.013 53.6701 128.209 53.2079 128.601 52.8381C128.992 52.4683 129.474 52.2834 130.048 52.2834C130.597 52.2834 131.056 52.4622 131.426 52.8196C131.796 53.1771 131.996 53.6455 132.027 54.2248H130.723C130.717 54.0152 130.649 53.8442 130.519 53.7117C130.39 53.5792 130.22 53.513 130.011 53.513C129.795 53.5191 129.618 53.5854 129.479 53.7117C129.34 53.8381 129.274 54.0122 129.28 54.234C129.28 54.4312 129.343 54.5946 129.47 54.724C129.596 54.8534 129.826 54.9674 130.159 55.066C130.356 55.1338 130.495 55.1816 130.575 55.2093C130.655 55.237 130.732 55.2632 130.806 55.2879C131.225 55.4605 131.561 55.7101 131.814 56.0367C132.067 56.3633 132.193 56.767 132.193 57.2477C132.193 57.864 131.984 58.3786 131.564 58.7915C131.145 59.2045 130.615 59.4109 129.974 59.4109C129.339 59.4109 128.812 59.2106 128.393 58.81C127.973 58.4094 127.764 57.9133 127.764 57.3217Z" fill="#222222"/>
</g>
<defs>
<clipPath id="clip0_14997_15521">
<rect width="126" height="52" fill="white" transform="translate(17 24)"/>
</clipPath>
</defs>
</svg>
