<svg width="594" height="245" viewBox="0 0 594 245" fill="none" xmlns="http://www.w3.org/2000/svg">
    <mask id="mask0_1020_41" style="mask-type:luminance" maskUnits="userSpaceOnUse" x="0" y="0" width="594" height="245">
        <path d="M593.654 0H0V245H593.654V0Z" fill="white"/>
    </mask>
    <g mask="url(#mask0_1020_41)">
        <path d="M245.086 0H0V245H245.086V0Z" fill="#FFD409"/>
        <path fill-rule="evenodd" clip-rule="evenodd" d="M46.3057 84.3889H61.6954C63.2846 84.3889 64.6123 84.7503 65.6781 85.4726C66.7438 86.1949 67.4393 87.1518 67.7644 88.3433L78.6018 129.512C78.9269 130.848 79.252 132.275 79.5771 133.791C79.9027 135.308 80.2278 136.897 80.5529 138.558C81.2031 135.164 81.9979 132.148 82.9369 129.512L95.7255 88.3433C96.0506 87.3322 96.746 86.4205 97.8117 85.6078C98.8775 84.7955 100.169 84.3889 101.686 84.3889H107.105C108.694 84.3889 109.977 84.7593 110.952 85.4994C111.928 86.2401 112.668 87.1876 113.174 88.3433L125.854 129.512C126.793 132.04 127.588 134.911 128.238 138.125C128.527 136.536 128.825 135.019 129.133 133.575C129.44 132.13 129.755 130.776 130.081 129.512L140.919 88.3433C141.207 87.2959 141.894 86.3753 142.977 85.5809C144.062 84.7861 145.362 84.3889 146.879 84.3889H161.293L136.909 163.313H120.327L105.479 114.399C104.937 112.846 104.414 111.058 103.908 109.036C103.402 111.058 102.879 112.846 102.336 114.399L87.272 163.313H70.6907L46.3057 84.3889ZM186.99 84.4596H200.288L177.603 157.586C176.542 161.004 173.38 163.334 169.8 163.334H156.893L179.175 90.2458C180.223 86.8083 183.395 84.4596 186.99 84.4596Z" fill="#222222"/>
        <path fill-rule="evenodd" clip-rule="evenodd" d="M293.484 114.333V87.8955H287.514V82.1022H305.422V87.8955H299.453V114.333H293.484ZM323.199 81.5364C327.992 81.5364 332.022 83.1769 335.29 86.4581C338.558 89.7392 340.192 93.7171 340.192 98.3924C340.192 103.067 338.55 107.023 335.268 110.261C331.986 113.499 327.963 115.117 323.199 115.117C318.406 115.117 314.369 113.499 311.086 110.261C307.804 107.023 306.177 103.067 306.206 98.3924C306.206 93.7171 307.833 89.7392 311.086 86.4581C314.339 83.1769 318.377 81.5364 323.199 81.5364ZM323.156 109.325C326.292 109.325 328.921 108.243 331.042 106.08C333.162 103.917 334.222 101.31 334.222 98.2614C334.222 95.2418 333.162 92.6646 331.042 90.5302C328.921 88.3964 326.307 87.3292 323.199 87.3292C320.062 87.3292 317.44 88.3964 315.334 90.5302C313.228 92.6646 312.175 95.2418 312.175 98.2614C312.175 101.339 313.228 103.953 315.334 106.101C317.44 108.25 320.047 109.325 323.156 109.325ZM344.941 114.333V82.1022H353.96C357.649 82.1315 360.495 83.0389 362.5 84.8246C364.504 86.6102 365.506 89.0569 365.506 92.1637C365.506 95.0967 364.533 97.492 362.587 99.3502C360.641 101.209 357.765 102.138 353.96 102.138H350.91V114.333H344.941ZM350.91 87.8955V96.3452H354.439C356.066 96.3452 357.315 95.9966 358.186 95.2997C359.058 94.6029 359.508 93.5433 359.537 92.1204C359.537 90.7262 359.094 89.6737 358.208 88.9622C357.322 88.2508 356.066 87.8955 354.439 87.8955H350.91ZM378.185 105.274H384.416C384.445 106.523 384.873 107.51 385.701 108.236C386.529 108.962 387.539 109.325 388.73 109.325C390.008 109.325 391.054 108.947 391.868 108.192C392.679 107.437 393.088 106.465 393.088 105.274C393.088 104.113 392.707 103.103 391.953 102.247C391.199 101.39 390.008 100.686 388.381 100.134C386.726 99.6117 385.825 99.3215 385.68 99.2635C385.534 99.2051 385.389 99.1326 385.244 99.0454C383.239 98.2327 381.758 97.0854 380.8 95.6046C379.841 94.1237 379.362 92.4832 379.362 90.6829C379.362 88.0694 380.284 85.8917 382.128 84.1494C383.973 82.4075 386.246 81.5364 388.947 81.5364C391.534 81.5364 393.696 82.3783 395.439 84.0622C397.183 85.7466 398.125 87.9535 398.271 90.6829H392.127C392.099 89.6958 391.779 88.8897 391.171 88.2654C390.56 87.6411 389.761 87.3292 388.773 87.3292C387.756 87.358 386.921 87.6703 386.268 88.2654C385.614 88.8609 385.302 89.6812 385.331 90.7262C385.331 91.6558 385.629 92.4252 386.224 93.0349C386.82 93.6446 387.902 94.1817 389.47 94.6462C390.4 94.9657 391.054 95.1909 391.43 95.3214C391.807 95.4524 392.17 95.5758 392.518 95.6917C394.497 96.5049 396.08 97.6809 397.268 99.2197C398.46 100.759 399.058 102.661 399.058 104.925C399.058 107.829 398.069 110.254 396.094 112.2C394.116 114.145 391.618 115.117 388.599 115.117C385.607 115.117 383.124 114.174 381.148 112.286C379.173 110.399 378.185 108.061 378.185 105.274ZM419.101 81.5364C423.892 81.5364 427.921 83.1769 431.191 86.4581C434.456 89.7392 436.091 93.7171 436.091 98.3924C436.091 103.067 434.451 107.023 431.167 110.261C427.883 113.499 423.864 115.117 419.101 115.117C414.305 115.117 410.267 113.499 406.987 110.261C403.704 107.023 402.078 103.067 402.106 98.3924C402.106 93.7171 403.732 89.7392 406.987 86.4581C410.238 83.1769 414.276 81.5364 419.101 81.5364ZM419.054 109.325C422.192 109.325 424.821 108.243 426.941 106.08C429.061 103.917 430.121 101.31 430.121 98.2614C430.121 95.2418 429.061 92.6646 426.941 90.5302C424.821 88.3964 422.206 87.3292 419.101 87.3292C415.963 87.3292 413.339 88.3964 411.233 90.5302C409.127 92.6646 408.076 95.2418 408.076 98.2614C408.076 101.339 409.127 103.953 411.233 106.101C413.339 108.25 415.949 109.325 419.054 109.325ZM440.84 114.333V82.1022H457.222V87.8955H446.809V95.3435H456.746V101.136H446.809V114.333H440.84ZM465.5 114.333V87.8955H459.531V82.1022H477.439V87.8955H471.47V114.333H465.5ZM487.724 114.333L478.353 82.1022H484.455L490.075 104.664L495.564 82.1022H499.923L505.412 104.664L511.032 82.1022H517.134L507.767 114.333H503.018L497.746 93.0349L492.474 114.333H487.724ZM514.213 114.333L527.636 82.1022H532.428L545.846 114.333H539.269L535.956 106.014H524.102L520.795 114.333H514.213ZM526.368 100.221H533.69L530.029 90.8134L526.368 100.221ZM549.639 114.333V82.1022H558.963C562.855 82.1022 565.846 83.0172 567.938 84.8462C570.03 86.6757 571.076 89.1729 571.076 92.3381C571.076 94.9803 570.266 97.2668 568.655 99.1981C567.043 101.129 564.947 102.211 562.36 102.443L571.42 114.333H564.061L555.693 102.443H555.608V114.333H549.639ZM555.608 87.8955V97.4774H559.137C560.965 97.4774 562.416 97.0929 563.491 96.3235C564.57 95.5537 565.107 94.3414 565.107 92.6862C565.074 91.0603 564.532 89.8555 563.472 89.0715C562.412 88.2875 560.965 87.8955 559.137 87.8955H555.608ZM575.43 114.333V82.1022H592.73V87.8955H581.399V95.3435H592.25V101.136H581.399V108.541H592.73V114.333H575.43Z" fill="#222222"/>
        <path fill-rule="evenodd" clip-rule="evenodd" d="M286.41 166.056V133.825H295.342C300.716 133.825 304.942 135.197 308.021 137.941C311.1 140.685 312.64 144.743 312.64 150.115C312.64 154.848 311.216 158.688 308.37 161.635C305.523 164.582 301.224 166.056 295.473 166.056H286.41ZM292.379 160.263H295.298C298.958 160.292 301.761 159.479 303.708 157.824C305.654 156.169 306.642 153.599 306.67 150.115C306.67 146.514 305.661 143.865 303.642 142.166C301.624 140.467 298.741 139.618 294.994 139.618H292.379V160.263ZM317.432 166.056V133.825H334.73V139.618H323.402V147.066H334.251V152.859H323.402V160.263H334.73V166.056H317.432ZM350.415 166.056L337.954 133.825H344.229L352.899 158.347L361.57 133.825H367.844L355.383 166.056H350.415ZM371.635 166.056V133.825H388.932V139.618H377.604V147.066H388.453V152.859H377.604V160.263H388.932V166.056H371.635ZM394.813 166.056V133.825H400.782V160.263H410.629V166.056H394.813ZM428.58 133.259C433.377 133.259 437.405 134.9 440.675 138.181C443.94 141.462 445.575 145.44 445.575 150.115C445.575 154.79 443.935 158.746 440.651 161.984C437.367 165.221 433.344 166.84 428.58 166.84C423.789 166.84 419.751 165.221 416.467 161.984C413.188 158.746 411.562 154.79 411.591 150.115C411.591 145.44 413.216 141.462 416.467 138.181C419.723 134.9 423.76 133.259 428.58 133.259ZM428.538 161.047C431.676 161.047 434.305 159.965 436.425 157.802C438.545 155.639 439.605 153.033 439.605 149.984C439.605 146.964 438.545 144.387 436.425 142.253C434.305 140.119 431.69 139.052 428.58 139.052C425.442 139.052 422.823 140.119 420.717 142.253C418.611 144.387 417.56 146.964 417.56 149.984C417.56 153.062 418.611 155.676 420.717 157.824C422.823 159.973 425.428 161.047 428.538 161.047ZM450.324 166.056V133.825H459.342C463.031 133.854 465.877 134.762 467.884 136.547C469.886 138.333 470.89 140.78 470.89 143.886C470.89 146.819 469.915 149.215 467.969 151.073C466.023 152.932 463.149 153.861 459.342 153.861H456.294V166.056H450.324ZM456.294 139.618V148.068H459.823C461.448 148.068 462.697 147.719 463.568 147.022C464.44 146.326 464.892 145.265 464.92 143.843C464.92 142.449 464.478 141.396 463.592 140.685C462.706 139.973 461.448 139.618 459.823 139.618H456.294ZM475.248 166.056V133.825H492.544V139.618H481.218V147.066H492.064V152.859H481.218V160.263H492.544V166.056H475.248ZM498.424 166.056V133.825H507.748C511.645 133.825 514.637 134.74 516.724 136.569C518.816 138.398 519.862 140.895 519.862 144.061C519.862 146.703 519.056 148.989 517.445 150.921C515.833 152.851 513.732 153.933 511.15 154.166L520.21 166.056H512.846L504.483 154.166H504.394V166.056H498.424ZM504.394 139.618V149.2H507.923C509.755 149.2 511.207 148.816 512.281 148.046C513.355 147.276 513.892 146.064 513.892 144.409C513.864 142.783 513.322 141.578 512.262 140.794C511.202 140.01 509.755 139.618 507.923 139.618H504.394ZM521.869 156.997H528.097C528.126 158.245 528.554 159.232 529.384 159.958C530.213 160.684 531.221 161.047 532.413 161.047C533.69 161.047 534.736 160.67 535.546 159.915C536.362 159.16 536.767 158.187 536.767 156.997C536.767 155.835 536.39 154.826 535.636 153.97C534.882 153.113 533.69 152.409 532.065 151.857C530.406 151.334 529.506 151.044 529.36 150.986C529.214 150.928 529.073 150.855 528.927 150.768C526.92 149.955 525.44 148.808 524.484 147.327C523.523 145.846 523.042 144.206 523.042 142.406C523.042 139.792 523.965 137.614 525.812 135.872C527.655 134.13 529.926 133.259 532.63 133.259C535.217 133.259 537.379 134.101 539.122 135.785C540.866 137.469 541.808 139.676 541.954 142.406H535.81C535.782 141.418 535.462 140.612 534.849 139.988C534.241 139.364 533.44 139.052 532.456 139.052C531.438 139.081 530.604 139.393 529.949 139.988C529.294 140.584 528.983 141.404 529.011 142.449C529.011 143.378 529.308 144.148 529.907 144.758C530.5 145.367 531.584 145.904 533.153 146.369C534.081 146.688 534.736 146.914 535.113 147.044C535.49 147.175 535.853 147.298 536.201 147.414C538.175 148.228 539.758 149.404 540.951 150.942C542.143 152.481 542.736 154.383 542.736 156.648C542.736 159.552 541.751 161.976 539.773 163.922C537.798 165.868 535.301 166.84 532.281 166.84C529.289 166.84 526.807 165.896 524.832 164.009C522.854 162.121 521.869 159.784 521.869 156.997Z" fill="#222222"/>
    </g>
</svg>
